<svg width="14" height="18" viewBox="0 0 14 18" fill="none" xmlns="http://www.w3.org/2000/svg">
<path d="M2.87816 17.0888C-0.689278 14.784 -1.18476 9.07212 2.77906 5.67506C4.32495 4.35231 5.16726 3.27006 5.81139 2.18781C6.71315 0.714745 6.10867 -0.056859 6.59424 0.00326597C8.39778 0.243766 10.9842 4.19197 9.38873 6.88758C8.29868 8.73141 8.37796 9.43287 9.41846 9.91387C10.8653 10.5853 11.7968 7.8596 11.3112 6.15605C13.4715 6.39655 16.1173 13.2809 11.2517 17.0086C9.71575 18.1811 8.26895 18.2111 8.45724 17.6299C8.51669 17.4495 10.0626 15.766 10.0923 14.6136C10.1518 12.6195 8.09058 14.3331 6.81225 12.1786C6.3465 11.3969 6.38614 9.92389 6.04921 9.38276C5.78166 8.95187 4.81052 8.94185 3.8493 10.1143C2.88807 11.2867 1.76829 14.4834 4.6817 16.9585C6.04921 18.1209 4.12676 17.8804 2.88807 17.0788L2.87816 17.0888Z" fill="#33CCFF"/>
</svg>
