<svg width="30" height="26" viewBox="0 0 30 26" fill="none" xmlns="http://www.w3.org/2000/svg">
<path d="M21.568 2.2334H7.97725L2.23368 12.9997L7.97725 23.766H21.568L27.3116 12.9997L21.568 2.2334Z" stroke="white" stroke-width="1.4" stroke-linecap="round" stroke-linejoin="round"/>
<path d="M7.97743 4.46724C9.21102 4.46724 10.211 3.46722 10.211 2.23362C10.211 1.00003 9.21102 0 7.97743 0C6.74384 0 5.74382 1.00003 5.74382 2.23362C5.74382 3.46722 6.74384 4.46724 7.97743 4.46724Z" fill="white"/>
<path d="M7.97743 26C9.21102 26 10.211 24.9999 10.211 23.7663C10.211 22.5327 9.21102 21.5327 7.97743 21.5327C6.74384 21.5327 5.74382 22.5327 5.74382 23.7663C5.74382 24.9999 6.74384 26 7.97743 26Z" fill="white"/>
<path d="M21.5681 26C22.8017 26 23.8017 24.9999 23.8017 23.7663C23.8017 22.5327 22.8017 21.5327 21.5681 21.5327C20.3345 21.5327 19.3345 22.5327 19.3345 23.7663C19.3345 24.9999 20.3345 26 21.5681 26Z" fill="white"/>
<path d="M21.5681 4.46724C22.8017 4.46724 23.8017 3.46722 23.8017 2.23362C23.8017 1.00003 22.8017 0 21.5681 0C20.3345 0 19.3345 1.00003 19.3345 2.23362C19.3345 3.46722 20.3345 4.46724 21.5681 4.46724Z" fill="white"/>
<path d="M27.3117 15.2334C28.5452 15.2334 29.5453 14.2333 29.5453 12.9997C29.5453 11.7661 28.5452 10.7661 27.3117 10.7661C26.0781 10.7661 25.078 11.7661 25.078 12.9997C25.078 14.2333 26.0781 15.2334 27.3117 15.2334Z" fill="white"/>
<path d="M2.23361 15.2334C3.4672 15.2334 4.46722 14.2333 4.46722 12.9997C4.46722 11.7661 3.4672 10.7661 2.23361 10.7661C1.00002 10.7661 0 11.7661 0 12.9997C0 14.2333 1.00002 15.2334 2.23361 15.2334Z" fill="white"/>
<path d="M19.573 11.1641C19.615 10.9894 19.657 10.8001 19.657 10.6109C19.657 9.41706 18.7194 8.44162 17.5719 8.44162C16.9701 8.44162 16.4383 8.70368 16.0605 9.12588C15.4028 8.165 14.3112 7.52441 13.0797 7.52441C11.0506 7.53897 9.41327 9.24235 9.41327 11.3534C9.41327 11.3534 9.41327 11.3534 9.41327 11.3679C8.44767 11.8338 7.77595 12.8384 7.77595 14.0176C7.77595 15.6337 9.03542 16.9585 10.6028 16.9585H18.9153C20.4687 16.9585 21.7421 15.6482 21.7421 14.0176C21.7421 12.6346 20.8185 11.4699 19.573 11.1641Z" fill="white"/>
</svg>
