<svg width="29" height="24" viewBox="0 0 29 24" fill="none" xmlns="http://www.w3.org/2000/svg">
<path d="M7.50928 1.40039H13.3862C13.6631 1.40039 13.9458 1.49683 14.1675 1.65527C14.3933 1.81669 14.5047 2.00334 14.5327 2.14551C14.6462 2.72074 15.0193 3.18908 15.4585 3.50293C15.902 3.81984 16.4658 4.01953 17.0532 4.01953H25.8423C26.32 4.01953 26.7144 4.41295 26.7144 4.89062V15.8906C26.7143 16.3682 26.3199 16.7617 25.8423 16.7617H7.50928C7.03171 16.7617 6.63827 16.3682 6.63819 15.8906V2.27148C6.63826 1.79391 7.0317 1.40046 7.50928 1.40039Z" fill="#1E1E1E" stroke="#E4E4E4" stroke-width="1.4"/>
<path d="M27.414 15.8905C27.414 16.7548 26.7068 17.4619 25.8426 17.4619H7.50941C6.64513 17.4619 5.938 16.7548 5.938 15.8905V2.2716C5.938 1.40733 6.64513 0.700195 7.50941 0.700195H13.3865C14.2508 0.700195 15.0784 1.29209 15.2198 2.0097C15.3612 2.72731 16.1888 3.31921 17.0531 3.31921H25.8426C26.7068 3.31921 27.414 4.02634 27.414 4.89062V15.8905Z" fill="white" stroke="#00658D" stroke-width="1.4" stroke-linecap="round" stroke-linejoin="round"/>
<path d="M4.89027 4.01953H10.7672C11.0441 4.01953 11.3267 4.11597 11.5485 4.27441C11.7743 4.43583 11.8857 4.62248 11.9137 4.76465C12.0272 5.33988 12.4003 5.80822 12.8395 6.12207C13.283 6.43898 13.8468 6.63867 14.4342 6.63867H23.2233C23.701 6.63867 24.0953 7.03209 24.0953 7.50977V18.5098C24.0953 18.9874 23.7009 19.3809 23.2233 19.3809H4.89027C4.41269 19.3808 4.01925 18.9873 4.01917 18.5098V4.89062C4.01924 4.41305 4.41268 4.0196 4.89027 4.01953Z" fill="#1E1E1E" stroke="#F5F5EB" stroke-width="1.4"/>
<path d="M24.795 18.5096C24.795 19.3739 24.0878 20.081 23.2235 20.081H4.89039C4.02611 20.081 3.31898 19.3739 3.31898 18.5096V4.89075C3.31898 4.02647 4.02611 3.31934 4.89039 3.31934H10.7675C11.6318 3.31934 12.4594 3.91123 12.6008 4.62884C12.7422 5.34645 13.5698 5.93835 14.4341 5.93835H23.2235C24.0878 5.93835 24.795 6.64549 24.795 7.50976V18.5096Z" fill="white" stroke="#00658D" stroke-width="1.4" stroke-linecap="round" stroke-linejoin="round"/>
<path d="M2.27129 6.63867H8.14824C8.42508 6.63867 8.70776 6.73511 8.92949 6.89355C9.15534 7.05497 9.26671 7.24162 9.29473 7.38379C9.40822 7.95902 9.78131 8.42737 10.2205 8.74121C10.664 9.05812 11.2278 9.25781 11.8152 9.25781H20.6043C21.082 9.25781 21.4764 9.65123 21.4764 10.1289V21.1289C21.4763 21.6065 21.0819 22 20.6043 22H2.27129C1.79371 21.9999 1.40027 21.6065 1.4002 21.1289V7.50977C1.40026 7.03219 1.79371 6.63874 2.27129 6.63867Z" fill="#009FDE" stroke="white" stroke-width="1.4"/>
<path d="M22.176 21.1288C22.176 21.993 21.4688 22.7002 20.6046 22.7002H2.27141C1.40714 22.7002 0.700001 21.993 0.700001 21.1288V7.50989C0.700001 6.64561 1.40714 5.93848 2.27141 5.93848H8.1485C9.01278 5.93848 9.84039 6.53037 9.98181 7.24798C10.1232 7.96559 10.9509 8.55749 11.8151 8.55749H20.6046C21.4688 8.55749 22.176 9.26463 22.176 10.1289V21.1288Z" fill="white" stroke="#00658D" stroke-width="1.4" stroke-linecap="round" stroke-linejoin="round"/>
</svg>
