<svg width="29" height="26" viewBox="0 0 29 26" fill="none" xmlns="http://www.w3.org/2000/svg">
<path d="M25.8169 0.700195H6.10271C5.1954 0.700195 4.45987 1.43138 4.45987 2.33334V16.4873C4.45987 17.3892 5.1954 18.1204 6.10271 18.1204H25.8169C26.7242 18.1204 27.4597 17.3892 27.4597 16.4873V2.33334C27.4597 1.43138 26.7242 0.700195 25.8169 0.700195Z" fill="white" stroke="#004A67" stroke-width="1.4" stroke-linecap="round" stroke-linejoin="round"/>
<path d="M2.34258 7.97998H22.0574C22.5817 7.98021 22.9996 8.40143 22.9998 8.9126V23.0669C22.9998 23.5782 22.5818 24.0003 22.0574 24.0005H2.34258C1.81808 24.0003 1.40021 23.5783 1.4002 23.0669V8.9126C1.40038 8.40137 1.81819 7.98012 2.34258 7.97998Z" fill="#F5F5EB" stroke="white" stroke-width="1.4"/>
<path d="M22.057 7.27979H2.34285C1.43553 7.27979 0.700001 8.01097 0.700001 8.91293V23.0669C0.700001 23.9688 1.43553 24.7 2.34285 24.7H22.057C22.9643 24.7 23.6998 23.9688 23.6998 23.0669V8.91293C23.6998 8.01097 22.9643 7.27979 22.057 7.27979Z" fill="white" stroke="#004A67" stroke-width="1.4" stroke-linecap="round" stroke-linejoin="round"/>
<path d="M8.09274 15.9897H16.307" stroke="#004A67" stroke-width="1.4" stroke-linecap="round" stroke-linejoin="round"/>
<path d="M12.1999 20.0725V11.9067" stroke="#004A67" stroke-width="1.4" stroke-linecap="round" stroke-linejoin="round"/>
</svg>
