<svg width="24" height="24" viewBox="0 0 24 24" fill="none" xmlns="http://www.w3.org/2000/svg">
<path d="M23.5754 14.867L21.9518 13.8298C22.0594 13.2329 22.1279 12.6262 22.1279 12C22.1279 11.3738 22.0594 10.7671 21.9518 10.18L23.5852 9.14283C23.9471 8.90799 24.1036 8.37961 23.9275 7.95886L23.2918 6.43243C23.1157 6.01168 22.6267 5.74749 22.2061 5.83555L20.3282 6.2563C19.6338 5.24846 18.7535 4.36782 17.7461 3.6731L18.1667 1.79441C18.2645 1.37366 17.9906 0.884421 17.57 0.708294L16.0442 0.0722794C15.6237 -0.103848 15.0857 0.0527094 14.8608 0.424533L13.824 2.0586C13.2274 1.95097 12.621 1.88247 12.0048 1.88247C11.3886 1.88247 10.7724 1.95097 10.1758 2.0586L9.13902 0.424533C8.90428 0.0624942 8.37612 -0.0940629 7.95555 0.0722794L6.42975 0.708294C6.00917 0.884421 5.74509 1.37366 5.83312 1.79441L6.25369 3.6731C5.24627 4.36782 4.366 5.24846 3.67157 6.2563L1.79366 5.83555C1.37309 5.7377 0.884052 6.01168 0.707999 6.43243L0.0722493 7.95886C-0.103805 8.37961 0.0526874 8.91778 0.424357 9.14283L2.05774 10.18C1.95016 10.7769 1.88169 11.3836 1.88169 12C1.88169 12.6164 1.95016 13.2329 2.05774 13.82L0.424357 14.8572C0.0624682 15.092 -0.0940238 15.6204 0.0722493 16.0411L0.707999 17.5676C0.884052 17.9883 1.37309 18.2525 1.79366 18.1644L3.67157 17.7437C4.366 18.7515 5.24627 19.6322 6.25369 20.3269L5.83312 22.2056C5.73531 22.6263 6.00917 23.1156 6.42975 23.2917L7.95555 23.9277C8.37612 24.1038 8.91406 23.9473 9.13902 23.5755L10.1758 21.9414C10.7724 22.049 11.3788 22.1175 12.0048 22.1175C12.6308 22.1175 13.2372 22.049 13.824 21.9414L14.8608 23.5755C15.0955 23.9375 15.6237 24.0941 16.0442 23.9277L17.57 23.2917C17.9906 23.1156 18.2547 22.6263 18.1667 22.2056L17.7461 20.3269C18.7535 19.6322 19.6338 18.7515 20.3282 17.7437L22.2061 18.1644C22.6267 18.2623 23.1157 17.9883 23.2918 17.5676L23.9275 16.0411C24.1036 15.6204 23.9471 15.0822 23.5852 14.8572L23.5754 14.867ZM11.995 7.74359C14.3522 7.74359 16.2594 9.65164 16.2594 12.0098C16.2594 14.3679 14.3522 16.276 11.995 16.276C9.63784 16.276 7.73059 14.3679 7.73059 12.0098C7.73059 9.65164 9.63784 7.74359 11.995 7.74359Z" fill="white"/>
</svg>
