<svg width="16" height="18" viewBox="0 0 16 18" fill="none" xmlns="http://www.w3.org/2000/svg">
<path d="M0 11.274C0 11.1587 0.091351 11.069 0.208802 11.069H5.84646L5.19396 9.83915C5.15481 9.77509 5.08955 9.72384 5.01125 9.72384H0.208802C0.091351 9.72384 0 9.63416 0 9.51886V7.03345C0 6.91815 0.091351 6.82847 0.208802 6.82847H3.31474C3.47134 6.82847 3.57574 6.66192 3.49744 6.521L0.221852 0.320285C0.143552 0.179359 0.247953 0.0128117 0.404554 0.0128117H4.3196C4.3979 0.0128117 4.4762 0.0640574 4.51535 0.128114L7.77788 6.91815C7.85618 7.07189 8.07804 7.07189 8.15634 6.91815L11.6277 0.115303C11.6668 0.0512457 11.7321 0 11.8104 0H15.7907C15.9473 0 16.0517 0.166548 15.9734 0.307473L12.5542 6.50818C12.4759 6.64911 12.5803 6.81566 12.7369 6.81566H15.6602C15.7776 6.81566 15.869 6.90534 15.869 7.02064V9.50605C15.869 9.62135 15.7776 9.71103 15.6602 9.71103H10.9099C10.8316 9.71103 10.7664 9.74946 10.7272 9.81352L10.0486 11.0434H15.6602C15.7776 11.0434 15.869 11.1331 15.869 11.2484V13.7466C15.869 13.8619 15.7776 13.9516 15.6602 13.9516H10.14C10.0225 13.9516 9.93116 14.0413 9.93116 14.1566V17.795C9.93116 17.9103 9.83981 18 9.72235 18H6.10747C5.99001 18 5.89866 17.9103 5.89866 17.795V14.1566C5.89866 14.0413 5.80731 13.9516 5.68986 13.9516H0.208802C0.091351 13.9516 0 13.8619 0 13.7466V11.2484V11.274Z" fill="#33CCFF"/>
</svg>
