<svg width="40" height="55" viewBox="0 0 40 55" fill="none" xmlns="http://www.w3.org/2000/svg">
<path d="M9.83368 42.5698V54.0394H8.93598V48.6031H1.28503V54.0394H0.396448V42.5698H1.28503V47.8649H8.93598V42.5698H9.83368Z" fill="#33CCFF"/>
<path d="M9.83367 54.2856H8.93598C8.80383 54.2856 8.69446 54.1763 8.69446 54.0441V48.8539H1.52654V54.0441C1.52654 54.1808 1.41718 54.2856 1.28503 54.2856H0.396445C0.264297 54.2856 0.154932 54.1763 0.154932 54.0441V42.5745C0.154932 42.4424 0.264297 42.333 0.396445 42.333H1.28503C1.41718 42.333 1.52654 42.4424 1.52654 42.5745V47.6281H8.69446V42.5745C8.69446 42.4424 8.80383 42.333 8.93598 42.333H9.83367C9.96582 42.333 10.0752 42.4424 10.0752 42.5745V54.0441C10.0752 54.1808 9.96582 54.2856 9.83367 54.2856ZM9.1866 53.798H9.59672V42.8115H9.1866V47.865C9.1866 47.9972 9.07724 48.1065 8.94053 48.1065H1.28959C1.15288 48.1065 1.04352 47.9972 1.04352 47.865V42.8115H0.642515V53.798H1.04352V48.6032C1.04352 48.4711 1.15288 48.3617 1.28959 48.3617H8.94053C9.07268 48.3617 9.1866 48.4711 9.1866 48.6032V53.798Z" fill="#33CCFF"/>
<path d="M17.0244 42.4883L22.3285 54.0399H21.399L19.5853 50.0754H13.9758L12.1668 54.0399H11.2326L16.5368 42.4883H17.0244ZM19.239 49.3372L16.7692 43.9328L14.3039 49.3372H19.239Z" fill="#33CCFF"/>
<path d="M22.324 54.2858H21.3944C21.2987 54.2858 21.2121 54.2311 21.1757 54.1445L19.4258 50.3213H14.1262L12.3855 54.1445C12.3445 54.2311 12.2625 54.2858 12.1668 54.2858H11.2326C11.1506 54.2858 11.0731 54.2448 11.0276 54.1719C10.982 54.1035 10.9774 54.0124 11.0139 53.9395L16.3135 42.3878C16.3545 42.3013 16.4366 42.2466 16.5368 42.2466H17.0244C17.1201 42.2466 17.2067 42.3013 17.2431 42.3878L22.5473 53.9395C22.5837 54.0124 22.5792 54.1035 22.5291 54.1719C22.4835 54.2402 22.406 54.2858 22.324 54.2858ZM21.5493 53.7982H21.9458L16.8649 42.7296H16.6872L11.6063 53.7982H12.0027L13.7435 49.975C13.7845 49.8884 13.871 49.8337 13.9667 49.8337H19.5762C19.6719 49.8337 19.7539 49.8884 19.7949 49.975L21.5448 53.7982H21.5493ZM19.239 49.5786H14.3039C14.2219 49.5786 14.1445 49.5375 14.0989 49.4646C14.0533 49.3963 14.0488 49.3097 14.0807 49.2322L16.5459 43.8278C16.5824 43.7412 16.669 43.6865 16.7646 43.6865C16.8603 43.6865 16.9424 43.7412 16.9879 43.8278L19.4623 49.2322C19.4942 49.3051 19.4896 49.3963 19.4441 49.4646C19.3985 49.533 19.321 49.5786 19.239 49.5786ZM14.6867 49.0955H18.8653L16.7738 44.5205L14.6867 49.0955Z" fill="#33CCFF"/>
<path d="M23.7138 42.5698H26.653C27.8833 42.5698 28.8266 42.8387 29.4782 43.3718C30.1299 43.905 30.458 44.625 30.458 45.5363C30.458 46.8624 29.7289 47.792 28.2707 48.3297C28.6489 48.5074 29.1593 49.0907 29.7972 50.0795L32.3901 54.044H31.342L29.3415 50.8997C28.6717 49.8471 28.1522 49.1909 27.7831 48.9312C27.414 48.6714 26.8672 48.5393 26.1517 48.5393H24.5979V54.0394H23.7138V42.5698ZM24.5979 43.308V47.8011H26.5026C27.4732 47.8011 28.2114 47.6051 28.7264 47.2133C29.2367 46.8214 29.4919 46.2654 29.4919 45.55C29.4919 44.8346 29.2322 44.2923 28.7127 43.9004C28.1932 43.5085 27.4459 43.3126 26.4707 43.3126H24.5979V43.308Z" fill="#33CCFF"/>
<path d="M32.3901 54.2856H31.342C31.26 54.2856 31.1825 54.2446 31.1369 54.1717L29.1365 51.0275C28.4894 50.0067 27.9882 49.3688 27.6418 49.1318C27.3138 48.904 26.8125 48.7855 26.1518 48.7855H24.8394V54.0441C24.8394 54.1808 24.73 54.2856 24.5979 54.2856H23.7138C23.5771 54.2856 23.4723 54.1763 23.4723 54.0441V42.5745C23.4723 42.4424 23.5817 42.333 23.7138 42.333H26.653C27.938 42.333 28.936 42.6201 29.6286 43.1897C30.3395 43.7684 30.6949 44.5613 30.6949 45.541C30.6949 46.8397 30.0479 47.7967 28.7674 48.3891C29.1137 48.6989 29.5238 49.2138 29.9977 49.9475L32.5906 53.912C32.6407 53.9849 32.6453 54.0806 32.5997 54.1626C32.5587 54.24 32.4767 54.2902 32.3855 54.2902L32.3901 54.2856ZM31.4741 53.798H31.9389L29.5876 50.2072C28.8221 49.0316 28.3892 48.6534 28.1613 48.544C28.0747 48.503 28.0201 48.4118 28.0246 48.3116C28.0246 48.2159 28.093 48.1293 28.1841 48.0974C29.5466 47.5962 30.2119 46.7577 30.2119 45.5319C30.2119 44.6935 29.9203 44.0464 29.3233 43.5542C28.7173 43.0621 27.8196 42.8115 26.653 42.8115H23.9554V53.798H24.3564V48.5394C24.3564 48.4027 24.4657 48.2979 24.5979 48.2979H26.1518C26.9264 48.2979 27.5051 48.4392 27.9244 48.7308C28.3254 49.0133 28.8585 49.6786 29.5466 50.7677L31.4741 53.8026V53.798ZM26.5026 48.0427H24.5979C24.4657 48.0427 24.3564 47.9334 24.3564 47.8012V43.3082C24.3564 43.176 24.4657 43.0667 24.5979 43.0667H26.4707C27.496 43.0667 28.298 43.2808 28.8585 43.7092C29.4372 44.1512 29.7334 44.7709 29.7334 45.5547C29.7334 46.3385 29.4464 46.9719 28.8722 47.4093C28.3208 47.8331 27.5234 48.0473 26.5026 48.0473V48.0427ZM24.8394 47.5597H26.5026C27.414 47.5597 28.1112 47.3774 28.576 47.022C29.0317 46.6757 29.2504 46.1927 29.2504 45.5501C29.2504 44.9076 29.0271 44.4428 28.5669 44.092C28.093 43.732 27.3867 43.5497 26.4707 43.5497H24.8394V47.5552V47.5597Z" fill="#33CCFF"/>
<path d="M39.6263 42.5698V43.308H34.2538V47.8968H39.4851V48.6441H34.2538V53.3012H39.7585V54.0394H33.3698V42.5698H39.6263Z" fill="#33CCFF"/>
<path d="M39.7585 54.2856H33.3698C33.2331 54.2856 33.1283 54.1763 33.1283 54.0441V42.5745C33.1283 42.4424 33.2376 42.333 33.3698 42.333H39.6263C39.7585 42.333 39.8724 42.4424 39.8724 42.5745V43.3127C39.8724 43.4449 39.763 43.5542 39.6263 43.5542H34.4999V47.66H39.4896C39.6263 47.66 39.7357 47.7693 39.7357 47.906V48.6534C39.7357 48.7855 39.6263 48.8949 39.4896 48.8949H34.4999V53.0644H39.7585C39.8952 53.0644 40 53.1737 40 53.3059V54.0441C40 54.1808 39.8952 54.2856 39.7585 54.2856ZM33.6159 53.798H39.517V53.5429H34.2584C34.1262 53.5429 34.0169 53.4335 34.0169 53.3013V48.6442C34.0169 48.5075 34.1262 48.3982 34.2584 48.3982H39.2481V48.1384H34.2584C34.1262 48.1384 34.0169 48.0291 34.0169 47.8969V43.3082C34.0169 43.176 34.1262 43.0667 34.2584 43.0667H39.3894V42.8115H33.6204V53.798H33.6159Z" fill="#33CCFF"/>
<path d="M39.9225 0H0V39.5215H39.9225V0Z" fill="#33CCFF"/>
<mask id="mask0_121_1421" style="mask-type:luminance" maskUnits="userSpaceOnUse" x="0" y="0" width="40" height="40">
<path d="M39.9225 0H0V39.5215H39.9225V0Z" fill="white"/>
</mask>
<g mask="url(#mask0_121_1421)">
<path d="M-2.29209 14.8373C-2.29209 8.75847 2.63386 3.83252 8.71269 3.83252C14.7915 3.83252 19.7175 8.75847 19.7175 14.8373C19.7175 20.9161 14.7915 25.8375 8.71269 25.8375C2.63386 25.8375 -2.29209 20.9116 -2.29209 14.8373Z" fill="#FFFF00"/>
<path d="M6.19275 -0.564862C6.19275 -1.95926 7.32285 -3.08936 8.71724 -3.08936C10.1116 -3.08936 11.2417 -1.95926 11.2417 -0.564862C11.2417 0.829533 10.1116 1.95963 8.71724 1.95963C7.32285 1.95963 6.19275 0.829533 6.19275 -0.564862Z" fill="white"/>
<path d="M11.3101 30.0069C11.3101 31.4013 10.18 32.5314 8.7856 32.5314C7.39121 32.5314 6.26111 31.4013 6.26111 30.0024C6.26111 28.6034 7.39576 27.4824 8.7856 27.4824C10.18 27.4824 11.3101 28.6125 11.3101 30.0069Z" fill="white"/>
<path d="M23.2673 20.1505C24.4748 20.8477 24.8895 22.3924 24.1923 23.6C23.4951 24.803 21.9503 25.2177 20.7428 24.5205C19.5352 23.8233 19.1251 22.2831 19.8177 21.0755C20.5149 19.8679 22.0597 19.4533 23.2673 20.1505Z" fill="#FFFF00"/>
<path d="M20.7109 4.86253C21.9184 4.16533 23.4632 4.58001 24.1604 5.78301C24.8576 6.98602 24.4384 8.53535 23.2308 9.22799C22.0232 9.92975 20.483 9.51052 19.7858 8.30751C19.0886 7.09994 19.5033 5.55517 20.7109 4.86253Z" fill="#FFFF00"/>
<path d="M-1.10731 2.76161C-1.80451 1.55404 -1.38984 0.00927365 -0.182274 -0.687924C1.02529 -1.38512 2.5655 -0.970448 3.26726 0.237116C3.96446 1.44468 3.54978 2.98945 2.34222 3.68209C1.13465 4.37929 -0.410117 3.96462 -1.10276 2.76161H-1.10731Z" fill="#FFFF00"/>
<path d="M3.32194 29.2415C2.62474 30.4491 1.07997 30.8592 -0.127592 30.1666C-1.33516 29.4694 -1.74983 27.9246 -1.05263 26.717C-0.355434 25.5095 1.18934 25.0993 2.3969 25.792C3.60447 26.4892 4.01458 28.034 3.32194 29.2415Z" fill="#FFFF00"/>
<path d="M18.6102 26.6805C19.3119 27.888 18.8927 29.4283 17.6851 30.13C16.4776 30.8272 14.9373 30.4125 14.2401 29.205C13.5429 27.9928 13.9576 26.4526 15.1606 25.7554C16.3682 25.0582 17.913 25.4729 18.6102 26.6805Z" fill="#FFFF00"/>
<path d="M24.0374 12.1626C25.4318 12.1626 26.5619 13.2927 26.5664 14.6871C26.5664 16.0769 25.4318 17.2116 24.0374 17.2116C22.643 17.2116 21.5129 16.0815 21.5129 14.6871C21.5129 13.2927 22.643 12.1626 24.0374 12.1626Z" fill="white"/>
<path d="M14.1809 0.200897C14.8781 -1.00211 16.4229 -1.41678 17.6304 -0.724143C18.8334 -0.0269457 19.2481 1.51783 18.5509 2.72539C17.8537 3.93295 16.3135 4.34307 15.1059 3.65043C13.8984 2.95323 13.4883 1.40846 14.1809 0.200897Z" fill="#FFFF00"/>
<path d="M0.656189 17.3164C3.2946 16.7194 3.77763 16.241 4.37002 13.6025C4.96697 16.241 5.44999 16.7194 8.08841 17.3164C5.44999 17.9133 4.97152 18.3963 4.37002 21.0302C3.77763 18.3918 3.2946 17.9133 0.656189 17.3164Z" fill="#33CCFF"/>
</g>
<path d="M24.8394 47.5598H26.5026C27.414 47.5598 28.1112 47.3776 28.576 47.0221C29.0317 46.6758 29.2504 46.1928 29.2504 45.5503C29.2504 44.9077 29.0271 44.4429 28.5669 44.0921C28.093 43.7321 27.3867 43.5498 26.4707 43.5498H24.8394V47.5553V47.5598Z" fill="#FFFF00"/>
</svg>
